# xmcd CD database file
#
# Track frame offsets:
#	187
#	23697
#	39967
#	56835
#	76697
#	96407
#	114400
#	133840
#	155815
#	175412
#
# Disc length: 2672 seconds
#
# Revision: 0
# Processed by: cddbd v1.5PL3 Copyright (c) Steve Scherf et al.
# Submitted via: CDex 1.50Beta7
#
DISCID=7e0a6e0a
DTITLE=かないみか - おもちゃ箱
DYEAR=1992
DGENRE=JPop
TTITLE0=オーバーチャ-小さなお人形
TTITLE1=ハートのオルゴール
TTITLE2=今どきのままごと
TTITLE3=おもちゃの指輪
TTITLE4=つみきのお城
TTITLE5=微笑みの紙風船
TTITLE6=パズル
TTITLE7=ビーズのネックレス
TTITLE8=見つけた絵本
TTITLE9=心のぬり絵
EXTD=YEAR: 1992
EXTT0=
EXTT1=
EXTT2=
EXTT3=
EXTT4=
EXTT5=
EXTT6=
EXTT7=
EXTT8=
EXTT9=
PLAYORDER=
